<?xml version="1.0" standalone="no"?>
<!DOCTYPE svg PUBLIC "-//W3C//DTD SVG 20010904//EN"
 "http://www.w3.org/TR/2001/REC-SVG-20010904/DTD/svg10.dtd">
<svg version="1.0" xmlns="http://www.w3.org/2000/svg"
 width="541.000000pt" height="458.000000pt" viewBox="0 0 541.000000 458.000000"
 preserveAspectRatio="xMidYMid meet">

<g transform="translate(0.000000,458.000000) scale(0.100000,-0.100000)"
fill="#000000" stroke="none">
<path d="M3934 4537 c-12 -7 -34 -27 -48 -44 -30 -35 -185 -118 -241 -129 -19
-3 -45 -16 -58 -28 -21 -20 -25 -34 -31 -127 -18 -267 -81 -510 -156 -607 -54
-69 -234 -163 -388 -203 -86 -22 -296 -36 -383 -25 -51 7 -60 13 -142 91 -212
202 -409 296 -591 282 -92 -7 -139 -30 -176 -85 -56 -85 -90 -303 -90 -580 l0
-155 -49 -91 c-27 -50 -133 -246 -236 -436 -103 -190 -252 -466 -332 -615
l-146 -270 -368 -365 c-404 -400 -413 -411 -413 -521 -1 -73 28 -128 159 -304
98 -131 102 -135 170 -166 214 -96 561 -96 897 1 241 69 539 204 793 357 202
122 3075 1962 3122 2000 85 68 126 180 104 285 -11 50 -50 114 -281 463 -148
223 -304 454 -349 514 -249 336 -530 646 -674 744 -44 30 -61 32 -93 14z m97
-229 c27 -22 49 -45 49 -50 0 -5 -47 -79 -104 -166 -93 -141 -135 -213 -261
-447 -50 -92 -160 -201 -340 -337 -233 -176 -364 -255 -534 -323 -243 -97
-513 -132 -758 -99 -42 6 -43 7 -43 43 0 48 24 143 52 203 25 55 53 72 148 87
80 13 240 14 306 2 227 -42 500 -6 710 93 209 99 290 178 357 348 43 108 84
302 102 489 l6 66 67 27 c37 14 94 44 127 66 33 22 61 40 63 40 2 0 26 -19 53
-42z m233 -243 c96 -109 275 -338 271 -346 -3 -3 -20 -10 -39 -13 -66 -13
-175 -76 -239 -139 -35 -34 -155 -159 -268 -277 -112 -118 -231 -242 -263
-275 l-58 -60 6 49 c25 202 154 532 314 803 77 130 204 323 212 323 4 0 32
-29 64 -65z m-2250 -490 c75 -20 174 -72 251 -132 l59 -46 -101 -17 c-122 -21
-180 -47 -232 -106 -45 -52 -75 -125 -100 -249 -17 -85 -20 -90 -42 -86 -56 8
-59 14 -59 125 0 216 33 480 63 504 30 24 86 26 161 7z m2731 -145 c47 -71 88
-136 91 -144 4 -10 -18 -29 -71 -63 -150 -94 -772 -510 -915 -613 -400 -286
-620 -469 -817 -677 -380 -405 -538 -533 -1218 -989 -392 -263 -540 -352 -719
-433 -220 -100 -475 -171 -611 -171 l-54 0 -91 127 c-75 105 -90 132 -90 163
0 51 18 64 67 51 54 -15 176 -13 258 4 182 39 439 154 680 304 161 101 219
120 390 130 181 11 252 46 310 153 25 45 30 69 36 155 5 88 10 108 32 141 38
54 67 67 218 100 252 56 418 124 611 251 134 89 189 141 545 514 163 172 343
359 398 417 188 194 511 535 541 568 72 82 186 141 276 142 l48 0 85 -130z
m-1190 -207 c-21 -55 -48 -215 -53 -325 l-7 -126 -265 -278 c-287 -300 -361
-369 -485 -449 -179 -117 -314 -170 -570 -225 -55 -11 -123 -32 -151 -44 -66
-31 -130 -94 -160 -160 l-24 -53 -95 -12 c-107 -13 -196 -40 -429 -131 -217
-84 -272 -85 -294 -5 -8 26 5 54 97 227 58 109 111 197 117 198 6 0 72 -32
146 -70 132 -69 171 -80 208 -60 25 13 41 65 30 95 -11 28 -17 32 -182 119
l-128 67 20 40 c11 21 25 39 30 39 6 0 70 -30 143 -67 158 -81 176 -86 215
-63 34 21 44 57 26 98 -10 24 -37 42 -140 95 -178 91 -171 84 -145 134 l20 41
146 -74 c105 -54 153 -73 168 -69 31 9 67 52 67 80 0 38 -37 69 -165 135 -66
35 -123 65 -127 67 -7 3 37 103 45 103 1 0 63 -31 136 -70 147 -77 186 -85
221 -48 21 23 26 68 10 98 -5 10 -72 51 -147 90 -76 40 -139 73 -141 75 -1 1
10 24 25 51 14 27 27 50 27 51 1 1 38 -9 84 -23 153 -44 255 -57 442 -58 424
0 780 135 1180 448 100 78 117 87 105 59z m1496 -253 c56 -85 109 -171 115
-191 17 -47 4 -96 -33 -130 -31 -28 -2933 -1888 -3133 -2008 -319 -190 -661
-325 -955 -375 -166 -29 -174 -21 -35 33 258 99 455 211 905 516 710 479 805
557 1281 1054 152 159 359 328 702 575 350 251 1031 701 1043 688 4 -4 53 -77
110 -162z m-3221 -1585 c0 -4 -7 -19 -14 -34 -27 -52 -59 -64 -196 -72 -200
-11 -246 -27 -481 -169 -179 -109 -338 -187 -465 -229 -92 -31 -239 -60 -250
-49 -3 3 97 107 223 231 125 124 231 229 235 233 4 4 17 -5 29 -19 32 -42 102
-78 161 -84 70 -7 141 13 362 98 99 39 205 76 235 84 56 13 161 20 161 10z"/>
<path d="M2435 3115 c-39 -38 -37 -88 6 -127 37 -35 69 -35 108 -2 25 21 31
33 31 65 0 80 -90 120 -145 64z"/>
<path d="M2185 3095 c-46 -45 -22 -133 40 -149 61 -15 126 49 111 109 -16 65
-104 88 -151 40z"/>
<path d="M4604 2764 c-126 -80 -241 -159 -256 -175 -33 -35 -35 -67 -7 -103
40 -51 65 -42 335 131 171 109 250 165 260 184 18 35 10 74 -19 94 -47 33 -74
21 -313 -131z"/>
<path d="M3783 2238 c-203 -130 -255 -168 -263 -191 -20 -59 41 -122 98 -101
42 16 474 293 500 321 22 24 28 56 16 88 -7 18 -55 45 -81 45 -10 0 -132 -73
-270 -162z"/>
</g>
</svg>
